# xmcd
#
# Track frame offsets:
#	150
#	11919
#	24210
#	39385
#	50719
#	63390
#	77180
#	87941
#	97262
#	110944
#	123222
#	137311
#	151044
#	162639
#
# Disc length: 2372 seconds
#
# Revision: 0
# Processed by: cddbd v1.4PL0 Copyright (c) Steve Scherf et al.
# Submitted via: dBpowerAMP V4.0
#
DISCID=b509420e
DTITLE=The Kendalls featuring Jeannie Kendall - Love Is A Long Hard Road
DYEAR=1900
DGENRE=Country
TTITLE0=Love Is A Long Hard Road
TTITLE1=I'm Already Blue
TTITLE2=If You Let Him Drive You Crazy, He Will
TTITLE3=Bye Bye Love
TTITLE4=Pick Me Up On Your Way Down
TTITLE5=Thank God For The Radio
TTITLE6=I'd Rather Dance With You
TTITLE7=Blue Blue Day
TTITLE8=Heartaches By The Number
TTITLE9=Curtain In The Window
TTITLE10=Crying Time
TTITLE11=Once More
TTITLE12=Temporarily Out Of Order
TTITLE13=Just Like Real People
EXTD=
EXTT0=
EXTT1=
EXTT2=
EXTT3=
EXTT4=
EXTT5=
EXTT6=
EXTT7=
EXTT8=
EXTT9=
EXTT10=
EXTT11=
EXTT12=
EXTT13=
PLAYORDER=
